<?xml version="1.0" encoding="iso-8859-1"?>
<!-- Generator: Adobe Illustrator 18.0.0, SVG Export Plug-In . SVG Version: 6.00 Build 0)  -->
<!DOCTYPE svg PUBLIC "-//W3C//DTD SVG 1.1//EN" "http://www.w3.org/Graphics/SVG/1.1/DTD/svg11.dtd">
<svg version="1.1" id="Capa_1" xmlns="http://www.w3.org/2000/svg" xmlns:xlink="http://www.w3.org/1999/xlink" x="0px" y="0px"
	 viewBox="0 0 60.036 60.036" style="enable-background:new 0 0 60.036 60.036;" xml:space="preserve">
<g>
	<path d="M57.41,8.509L28.906,2.361c-1.762-0.379-3.575,0.8-3.953,2.551l-9,41.725c-0.188,0.868-0.025,1.758,0.456,2.505
		c0.482,0.747,1.226,1.261,2.094,1.448l28.504,6.148c0.231,0.05,0.468,0.075,0.703,0.075c1.555,0,2.922-1.104,3.25-2.626l9-41.725
		C60.347,10.67,59.203,8.897,57.41,8.509z M49.018,32.655c-1.864,2.346-5.642,5.783-13.058,8.837l-0.637,0.262l-0.472-0.501
		c-5.499-5.841-7.523-10.529-8.253-13.434c-0.539-2.144-0.087-4.642,1.207-6.682c1.212-1.91,2.963-3.175,4.931-3.562
		c0.469-0.092,0.938-0.139,1.396-0.139c2.968,0,4.885,1.895,5.78,3.052c0.837-0.442,2.191-0.989,3.775-0.989
		c1.424,0,2.757,0.436,3.961,1.293c1.634,1.163,2.708,3.038,3.025,5.278C51.011,28.463,50.393,30.924,49.018,32.655z"/>
	<path d="M14.728,50.225c-0.771-1.196-1.031-2.621-0.73-4.011l1.701-7.888c-0.176,0.014-0.35,0.033-0.533,0.033c0,0,0,0,0,0
		c-1.237,0-2.428-0.341-3.54-1.014c-1.716-1.038-2.928-2.827-3.411-5.037c-0.516-2.36-0.083-4.86,1.157-6.688
		c1.575-2.32,4.752-5.72,11.031-9.099l2.133-9.891L9.635,4.845C7.798,4.591,6.131,5.897,5.883,7.684L0.032,49.965
		c-0.251,1.816,1.022,3.499,2.839,3.751l28.885,3.997c0.154,0.021,0.307,0.032,0.458,0.032c1.161,0,2.196-0.618,2.793-1.551
		l-16.925-3.651C16.69,52.244,15.499,51.42,14.728,50.225z"/>
</g>
<g>
</g>
<g>
</g>
<g>
</g>
<g>
</g>
<g>
</g>
<g>
</g>
<g>
</g>
<g>
</g>
<g>
</g>
<g>
</g>
<g>
</g>
<g>
</g>
<g>
</g>
<g>
</g>
<g>
</g>
</svg>
