<svg xmlns="http://www.w3.org/2000/svg" xmlns:xlink="http://www.w3.org/1999/xlink" viewBox="0 0 324.96 333.94"><defs><style>.cls-1{fill:none;}.cls-2,.cls-53{opacity:0.05;}.cls-3{fill:url(#未命名漸層_34);}.cls-4{fill:#999;}.cls-5,.cls-7{opacity:0.5;}.cls-52,.cls-53,.cls-6{fill:#fff;}.cls-6,.cls-9{opacity:0.2;}.cls-7{fill:url(#未命名漸層_129);}.cls-16,.cls-51,.cls-54,.cls-55,.cls-56,.cls-57,.cls-8{opacity:0.15;}.cls-10{fill:url(#未命名漸層_716);}.cls-11{fill:url(#未命名漸層_285);}.cls-12{fill:url(#未命名漸層_855);}.cls-13{fill:url(#未命名漸層_930);}.cls-14{fill:url(#未命名漸層_326);}.cls-15{opacity:0.1;}.cls-17{clip-path:url(#clip-path);}.cls-18{fill:#0077e2;}.cls-19{fill:url(#未命名漸層_47);}.cls-20{fill:url(#未命名漸層_38);}.cls-21{fill:url(#未命名漸層_123);}.cls-22{fill:url(#未命名漸層_25);}.cls-23{fill:url(#未命名漸層_38-2);}.cls-24{fill:url(#未命名漸層_216);}.cls-25{fill:url(#未命名漸層_74);}.cls-26{fill:url(#未命名漸層_266);}.cls-27{fill:url(#未命名漸層_6);}.cls-28{fill:url(#未命名漸層_10);}.cls-29{fill:url(#未命名漸層_113);}.cls-30{fill:url(#未命名漸層_52);}.cls-31{fill:url(#未命名漸層_86);}.cls-32{fill:url(#未命名漸層_26);}.cls-33{fill:url(#未命名漸層_38-3);}.cls-34{fill:url(#未命名漸層_118);}.cls-35{fill:url(#未命名漸層_119);}.cls-36{fill:url(#未命名漸層_122);}.cls-37{fill:url(#未命名漸層_24);}.cls-38{fill:url(#未命名漸層_12);}.cls-39{fill:url(#未命名漸層_28);}.cls-40{fill:url(#未命名漸層_35);}.cls-41{fill:url(#未命名漸層_38-4);}.cls-42{fill:url(#未命名漸層_63);}.cls-43{fill:url(#未命名漸層_70);}.cls-44{fill:url(#未命名漸層_65);}.cls-45{fill:url(#未命名漸層_77);}.cls-46{fill:url(#未命名漸層_78);}.cls-47{fill:url(#未命名漸層_29);}.cls-48{fill:url(#未命名漸層_55);}.cls-49{fill:url(#未命名漸層_42);}.cls-50{opacity:0.3;fill:url(#未命名漸層_14);}.cls-51{fill:url(#未命名漸層_60);}.cls-52{opacity:0.06;}.cls-54{fill:url(#未命名漸層_60-2);}.cls-55{fill:url(#未命名漸層_60-3);}.cls-56{fill:url(#未命名漸層_68);}.cls-57{fill:url(#未命名漸層_60-4);}</style><linearGradient id="未命名漸層_34" x1="162.66" y1="324.58" x2="162.66" gradientUnits="userSpaceOnUse"><stop offset="0" stop-color="#fff"/><stop offset="0.23" stop-color="#f4f4f4"/><stop offset="0.58" stop-color="#e9e9e9"/><stop offset="1" stop-color="#e6e6e6"/></linearGradient><linearGradient id="未命名漸層_129" x1="0.37" y1="82.5" x2="324.94" y2="82.5" gradientUnits="userSpaceOnUse"><stop offset="0" stop-color="#fff" stop-opacity="0.1"/><stop offset="0.05" stop-color="#fff" stop-opacity="0.17"/><stop offset="0.13" stop-color="#fff" stop-opacity="0.25"/><stop offset="0.23" stop-color="#fff" stop-opacity="0.32"/><stop offset="0.35" stop-color="#fff" stop-opacity="0.37"/><stop offset="0.53" stop-color="#fff" stop-opacity="0.39"/><stop offset="1" stop-color="#fff" stop-opacity="0.4"/></linearGradient><linearGradient id="未命名漸層_716" x1="35.66" y1="134.9" x2="183.14" y2="134.9" gradientUnits="userSpaceOnUse"><stop offset="0.12" stop-color="#094dbd"/><stop offset="0.14" stop-color="#0b4fc5"/><stop offset="0.15" stop-color="#1053da"/><stop offset="0.17" stop-color="#1758f3"/><stop offset="0.2" stop-color="#1455e8"/><stop offset="0.25" stop-color="#0b4bc9"/><stop offset="0.31" stop-color="#003fa2"/><stop offset="0.33" stop-color="#0745b4"/><stop offset="0.38" stop-color="#1855e4"/><stop offset="0.39" stop-color="#1e5bf6"/><stop offset="0.41" stop-color="#1a57eb"/><stop offset="0.44" stop-color="#0f4dcc"/><stop offset="0.47" stop-color="#003fa2"/><stop offset="0.5" stop-color="#0141a6"/><stop offset="0.54" stop-color="#0647b3"/><stop offset="0.58" stop-color="#0d52c7"/><stop offset="0.62" stop-color="#1861e4"/><stop offset="0.64" stop-color="#1e6af6"/><stop offset="0.65" stop-color="#1a64eb"/><stop offset="0.66" stop-color="#0f55cc"/><stop offset="0.68" stop-color="#003fa2"/><stop offset="0.77" stop-color="#0c4cc4"/><stop offset="0.86" stop-color="#1657e0"/><stop offset="0.91" stop-color="#1a5beb"/><stop offset="0.92" stop-color="#1656df"/><stop offset="0.96" stop-color="#0a4abe"/><stop offset="0.98" stop-color="#0342a9"/><stop offset="1" stop-color="#003fa2"/></linearGradient><linearGradient id="未命名漸層_285" x1="66.55" y1="89.86" x2="286.56" y2="89.86" gradientUnits="userSpaceOnUse"><stop offset="0.03" stop-color="#003fa2"/><stop offset="0.08" stop-color="#1550bb"/><stop offset="0.1" stop-color="#185ad1"/><stop offset="0.14" stop-color="#1c63e6"/><stop offset="0.17" stop-color="#1d68f2"/><stop offset="0.21" stop-color="#1e6af6"/><stop offset="0.23" stop-color="#1963e9"/><stop offset="0.29" stop-color="#0e53ca"/><stop offset="0.35" stop-color="#0648b4"/><stop offset="0.41" stop-color="#0241a7"/><stop offset="0.46" stop-color="#003fa2"/><stop offset="0.59" stop-color="#003fa2"/><stop offset="0.61" stop-color="#0647b2"/><stop offset="0.66" stop-color="#135ad7"/><stop offset="0.71" stop-color="#1b66ee"/><stop offset="0.74" stop-color="#1e6af6"/><stop offset="0.77" stop-color="#1a64ea"/><stop offset="0.84" stop-color="#0e53c9"/><stop offset="0.9" stop-color="#003fa2"/></linearGradient><linearGradient id="未命名漸層_855" x1="139.35" y1="186.31" x2="306.08" y2="186.31" gradientUnits="userSpaceOnUse"><stop offset="0" stop-color="#003fa2"/><stop offset="0.02" stop-color="#0c49ae"/><stop offset="0.04" stop-color="#1451b6"/><stop offset="0.08" stop-color="#1753b9"/><stop offset="0.11" stop-color="#134fb5"/><stop offset="0.14" stop-color="#0645a8"/><stop offset="0.15" stop-color="#003fa2"/><stop offset="0.18" stop-color="#094fc4"/><stop offset="0.22" stop-color="#1665f3"/><stop offset="0.23" stop-color="#105bdd"/><stop offset="0.26" stop-color="#074cbd"/><stop offset="0.28" stop-color="#0242a9"/><stop offset="0.29" stop-color="#003fa2"/><stop offset="0.31" stop-color="#0141a5"/><stop offset="0.33" stop-color="#0546b0"/><stop offset="0.34" stop-color="#0b4fc1"/><stop offset="0.35" stop-color="#145bd9"/><stop offset="0.37" stop-color="#1e6af6"/><stop offset="0.42" stop-color="#1e5ff6"/><stop offset="0.42" stop-color="#1e5ef6"/><stop offset="0.43" stop-color="#1a5aeb"/><stop offset="0.44" stop-color="#0f4fcc"/><stop offset="0.45" stop-color="#003fa2"/><stop offset="0.66" stop-color="#003fa2"/><stop offset="0.67" stop-color="#0242a8"/><stop offset="0.69" stop-color="#0c51c5"/><stop offset="0.72" stop-color="#145cda"/><stop offset="0.75" stop-color="#1863e7"/><stop offset="0.77" stop-color="#1a65eb"/><stop offset="0.78" stop-color="#0d51c6"/><stop offset="0.79" stop-color="#0344ac"/><stop offset="0.79" stop-color="#003fa2"/><stop offset="1" stop-color="#003fa2"/></linearGradient><linearGradient id="未命名漸層_930" x1="19.74" y1="230.18" x2="260.82" y2="230.18" gradientUnits="userSpaceOnUse"><stop offset="0" stop-color="#003fa2"/><stop offset="0.02" stop-color="#0c49ae"/><stop offset="0.04" stop-color="#1451b6"/><stop offset="0.08" stop-color="#1753b9"/><stop offset="0.12" stop-color="#134fb5"/><stop offset="0.16" stop-color="#0645a8"/><stop offset="0.18" stop-color="#003fa2"/><stop offset="0.27" stop-color="#0141a5"/><stop offset="0.35" stop-color="#0546b0"/><stop offset="0.42" stop-color="#0b4fc1"/><stop offset="0.49" stop-color="#145cd9"/><stop offset="0.53" stop-color="#1a65eb"/><stop offset="0.69" stop-color="#0d51c6"/><stop offset="0.83" stop-color="#0344ac"/><stop offset="0.92" stop-color="#003fa2"/><stop offset="1" stop-color="#003fa2"/></linearGradient><linearGradient id="未命名漸層_326" x1="167.01" y1="118.3" x2="203.44" y2="28.14" gradientUnits="userSpaceOnUse"><stop offset="0.7" stop-color="#1e6af6" stop-opacity="0"/><stop offset="0.71" stop-color="#1a64eb" stop-opacity="0.06"/><stop offset="0.74" stop-color="#0f54cb" stop-opacity="0.25"/><stop offset="0.76" stop-color="#0748b4" stop-opacity="0.39"/><stop offset="0.79" stop-color="#0241a7" stop-opacity="0.47"/><stop offset="0.81" stop-color="#003fa2" stop-opacity="0.5"/></linearGradient><clipPath id="clip-path"><path class="cls-1" d="M301.14,120.06a147.54,147.54,0,0,1,4.94,38A145.81,145.81,0,0,1,275,248.33c-1.7,2.16-2.34,2.91-2.34,2.91-1.61,1.89-3.64,1.73-4.5-.35l-1.57-3.79-26.18-62.95c-.38-.92-1-.91-1.33,0L219,236.54c-2.49,6.48-6.63,6.51-9.22.07L188,182.28c-.37-.92-1-.91-1.3,0l-19.67,53.49-.89,2.4A1.39,1.39,0,0,1,165,239h-23.8a1.81,1.81,0,0,1-1.8-1.81v-9L185.81,166l32.31,19.29L241.64,165l38.81,38.34Z"/></clipPath><linearGradient id="未命名漸層_47" x1="126.72" y1="221.33" x2="235.52" y2="32.88" gradientUnits="userSpaceOnUse"><stop offset="0" stop-color="#2177f1" stop-opacity="0"/><stop offset="0.28" stop-color="#2177f1" stop-opacity="0.35"/><stop offset="0.85" stop-color="#40b3fe" stop-opacity="0.8"/><stop offset="0.88" stop-color="#44b5fe" stop-opacity="0.81"/><stop offset="0.91" stop-color="#51bdfe" stop-opacity="0.84"/><stop offset="0.94" stop-color="#66c9fe" stop-opacity="0.88"/><stop offset="0.98" stop-color="#83d9ff" stop-opacity="0.95"/><stop offset="1" stop-color="#9be7ff"/></linearGradient><linearGradient id="未命名漸層_38" x1="184.14" y1="180.81" x2="230.1" y2="202.24" gradientUnits="userSpaceOnUse"><stop offset="0.9" stop-color="#2177f1" stop-opacity="0"/><stop offset="0.96" stop-color="#78c7fb" stop-opacity="0.14"/><stop offset="1" stop-color="#9be7ff" stop-opacity="0.2"/></linearGradient><linearGradient id="未命名漸層_123" x1="159.97" y1="171.99" x2="184.66" y2="182.47" gradientUnits="userSpaceOnUse"><stop offset="0.88" stop-color="#2177f1" stop-opacity="0"/><stop offset="0.91" stop-color="#479af5" stop-opacity="0.09"/><stop offset="0.97" stop-color="#84d2fc" stop-opacity="0.24"/><stop offset="1" stop-color="#9be7ff" stop-opacity="0.3"/></linearGradient><linearGradient id="未命名漸層_25" x1="158.46" y1="118.71" x2="168.08" y2="228.73" gradientUnits="userSpaceOnUse"><stop offset="0.97" stop-color="#2177f1" stop-opacity="0"/><stop offset="0.97" stop-color="#257bf1" stop-opacity="0"/><stop offset="0.98" stop-color="#68b8f9" stop-opacity="0.06"/><stop offset="0.99" stop-color="#8fdcfe" stop-opacity="0.09"/><stop offset="1" stop-color="#9be7ff" stop-opacity="0.1"/></linearGradient><linearGradient id="未命名漸層_38-2" x1="246.06" y1="179.84" x2="198.13" y2="204.26" xlink:href="#未命名漸層_38"/><linearGradient id="未命名漸層_216" x1="168.96" y1="176.28" x2="154" y2="167.64" gradientUnits="userSpaceOnUse"><stop offset="0.73" stop-color="#2177f1" stop-opacity="0"/><stop offset="0.77" stop-color="#368af3" stop-opacity="0.04"/><stop offset="0.92" stop-color="#7fcdfc" stop-opacity="0.19"/><stop offset="1" stop-color="#9be7ff" stop-opacity="0.25"/></linearGradient><linearGradient id="未命名漸層_74" x1="128.46" y1="216.8" x2="208.93" y2="133.46" gradientUnits="userSpaceOnUse"><stop offset="0.82" stop-color="#2177f1" stop-opacity="0"/><stop offset="0.9" stop-color="#5cadf8" stop-opacity="0.19"/><stop offset="0.96" stop-color="#8ad7fd" stop-opacity="0.34"/><stop offset="1" stop-color="#9be7ff" stop-opacity="0.4"/></linearGradient><linearGradient id="未命名漸層_266" x1="208.12" y1="188.09" x2="161.41" y2="170.16" gradientUnits="userSpaceOnUse"><stop offset="0.8" stop-color="#2177f1" stop-opacity="0"/><stop offset="0.83" stop-color="#368af3" stop-opacity="0.04"/><stop offset="0.94" stop-color="#7fcdfc" stop-opacity="0.19"/><stop offset="1" stop-color="#9be7ff" stop-opacity="0.25"/></linearGradient><linearGradient id="未命名漸層_6" x1="278.76" y1="183.45" x2="218.83" y2="136.62" gradientUnits="userSpaceOnUse"><stop offset="0.8" stop-color="#2177f1" stop-opacity="0"/><stop offset="0.87" stop-color="#55a7f7" stop-opacity="0.04"/><stop offset="1" stop-color="#9be7ff" stop-opacity="0.1"/></linearGradient><linearGradient id="未命名漸層_10" x1="214.81" y1="175.07" x2="260.92" y2="148.45" gradientUnits="userSpaceOnUse"><stop offset="0.85" stop-color="#2177f1" stop-opacity="0"/><stop offset="0.91" stop-color="#5cadf8" stop-opacity="0.19"/><stop offset="0.97" stop-color="#8ad7fd" stop-opacity="0.34"/><stop offset="1" stop-color="#9be7ff" stop-opacity="0.4"/></linearGradient><linearGradient id="未命名漸層_113" x1="282.07" y1="234.09" x2="132.86" y2="4.33" gradientUnits="userSpaceOnUse"><stop offset="0.98" stop-color="#2177f1" stop-opacity="0"/><stop offset="0.98" stop-color="#2e83f2" stop-opacity="0.05"/><stop offset="0.99" stop-color="#68b9f9" stop-opacity="0.29"/><stop offset="1" stop-color="#8ddafd" stop-opacity="0.44"/><stop offset="1" stop-color="#9be7ff" stop-opacity="0.5"/></linearGradient><linearGradient id="未命名漸層_52" x1="241.1" y1="171.69" x2="296.57" y2="202.44" gradientUnits="userSpaceOnUse"><stop offset="0.75" stop-color="#2177f1" stop-opacity="0"/><stop offset="0.89" stop-color="#6dbcfa" stop-opacity="0.09"/><stop offset="1" stop-color="#9be7ff" stop-opacity="0.15"/></linearGradient><linearGradient id="未命名漸層_86" x1="242.11" y1="170.14" x2="296.97" y2="203.11" gradientUnits="userSpaceOnUse"><stop offset="0.9" stop-color="#2177f1" stop-opacity="0"/><stop offset="0.93" stop-color="#479af5" stop-opacity="0.09"/><stop offset="0.97" stop-color="#84d2fc" stop-opacity="0.24"/><stop offset="1" stop-color="#9be7ff" stop-opacity="0.3"/></linearGradient><linearGradient id="未命名漸層_26" x1="317.67" y1="178.84" x2="253.41" y2="208.81" gradientUnits="userSpaceOnUse"><stop offset="0.96" stop-color="#2177f1" stop-opacity="0"/><stop offset="0.99" stop-color="#78c7fb" stop-opacity="0.14"/><stop offset="1" stop-color="#9be7ff" stop-opacity="0.2"/></linearGradient><linearGradient id="未命名漸層_38-3" x1="237.52" y1="182.08" x2="296.61" y2="200.15" xlink:href="#未命名漸層_38"/><linearGradient id="未命名漸層_118" x1="250.44" y1="249.25" x2="152.13" y2="5.91" gradientUnits="userSpaceOnUse"><stop offset="0.9" stop-color="#2177f1" stop-opacity="0"/><stop offset="0.91" stop-color="#2e83f2" stop-opacity="0.05"/><stop offset="0.95" stop-color="#68b9f9" stop-opacity="0.29"/><stop offset="0.98" stop-color="#8ddafd" stop-opacity="0.44"/><stop offset="1" stop-color="#9be7ff" stop-opacity="0.5"/></linearGradient><linearGradient id="未命名漸層_119" x1="213.24" y1="250.83" x2="170.7" y2="9.57" xlink:href="#未命名漸層_118"/><linearGradient id="未命名漸層_122" x1="164.08" y1="219.36" x2="203.13" y2="18.47" gradientUnits="userSpaceOnUse"><stop offset="0.76" stop-color="#2177f1" stop-opacity="0"/><stop offset="0.78" stop-color="#2e83f2" stop-opacity="0.05"/><stop offset="0.88" stop-color="#68b9f9" stop-opacity="0.29"/><stop offset="0.96" stop-color="#8ddafd" stop-opacity="0.44"/><stop offset="1" stop-color="#9be7ff" stop-opacity="0.5"/></linearGradient><linearGradient id="未命名漸層_24" x1="124.31" y1="286.2" x2="162.76" y2="68.11" gradientUnits="userSpaceOnUse"><stop offset="0.11" stop-color="#2177f1" stop-opacity="0"/><stop offset="0.35" stop-color="#2177f1" stop-opacity="0.2"/><stop offset="0.36" stop-color="#2178f1" stop-opacity="0.21"/><stop offset="0.56" stop-color="#2f91f7" stop-opacity="0.38"/><stop offset="0.74" stop-color="#38a4fb" stop-opacity="0.5"/><stop offset="0.9" stop-color="#3eaffd" stop-opacity="0.57"/><stop offset="1" stop-color="#40b3fe" stop-opacity="0.6"/></linearGradient><linearGradient id="未命名漸層_12" x1="200.07" y1="112.88" x2="117.7" y2="149.55" gradientUnits="userSpaceOnUse"><stop offset="0.95" stop-color="#2177f1" stop-opacity="0"/><stop offset="0.96" stop-color="#368af3" stop-opacity="0.04"/><stop offset="0.99" stop-color="#7fcdfc" stop-opacity="0.19"/><stop offset="1" stop-color="#9be7ff" stop-opacity="0.25"/></linearGradient><linearGradient id="未命名漸層_28" x1="199.3" y1="114.84" x2="118.3" y2="147.57" gradientUnits="userSpaceOnUse"><stop offset="0.98" stop-color="#2177f1" stop-opacity="0"/><stop offset="0.99" stop-color="#55a7f7" stop-opacity="0.04"/><stop offset="1" stop-color="#9be7ff" stop-opacity="0.1"/></linearGradient><linearGradient id="未命名漸層_35" x1="41.87" y1="130.9" x2="98.24" y2="157.19" gradientUnits="userSpaceOnUse"><stop offset="0.95" stop-color="#2177f1" stop-opacity="0"/><stop offset="0.98" stop-color="#78c7fb" stop-opacity="0.14"/><stop offset="1" stop-color="#9be7ff" stop-opacity="0.2"/></linearGradient><linearGradient id="未命名漸層_38-4" x1="111.17" y1="130.09" x2="65.84" y2="148.4" xlink:href="#未命名漸層_38"/><linearGradient id="未命名漸層_63" x1="147.38" y1="63.39" x2="135.53" y2="289.42" gradientUnits="userSpaceOnUse"><stop offset="0.97" stop-color="#2177f1" stop-opacity="0"/><stop offset="0.98" stop-color="#479af5" stop-opacity="0.09"/><stop offset="0.99" stop-color="#84d2fc" stop-opacity="0.24"/><stop offset="1" stop-color="#9be7ff" stop-opacity="0.3"/></linearGradient><linearGradient id="未命名漸層_70" x1="109.16" y1="48.57" x2="156.95" y2="294.46" gradientUnits="userSpaceOnUse"><stop offset="0.97" stop-color="#2177f1" stop-opacity="0"/><stop offset="0.99" stop-color="#6dbcfa" stop-opacity="0.09"/><stop offset="1" stop-color="#9be7ff" stop-opacity="0.15"/></linearGradient><linearGradient id="未命名漸層_65" x1="186.82" y1="73.49" x2="103.96" y2="278.58" gradientUnits="userSpaceOnUse"><stop offset="0.97" stop-color="#2177f1" stop-opacity="0"/><stop offset="0.99" stop-color="#78c7fb" stop-opacity="0.14"/><stop offset="1" stop-color="#9be7ff" stop-opacity="0.2"/></linearGradient><linearGradient id="未命名漸層_77" x1="12.32" y1="143.59" x2="80.15" y2="84.62" gradientUnits="userSpaceOnUse"><stop offset="0.65" stop-color="#2177f1" stop-opacity="0"/><stop offset="0.74" stop-color="#479af5" stop-opacity="0.09"/><stop offset="0.91" stop-color="#84d2fc" stop-opacity="0.24"/><stop offset="1" stop-color="#9be7ff" stop-opacity="0.3"/></linearGradient><linearGradient id="未命名漸層_78" x1="59.2" y1="57.41" x2="195.79" y2="294.01" gradientUnits="userSpaceOnUse"><stop offset="0.97" stop-color="#2177f1" stop-opacity="0"/><stop offset="0.98" stop-color="#55a7f7" stop-opacity="0.04"/><stop offset="1" stop-color="#9be7ff" stop-opacity="0.1"/></linearGradient><linearGradient id="未命名漸層_29" x1="156.93" y1="187.14" x2="158.95" y2="71.03" gradientUnits="userSpaceOnUse"><stop offset="0.93" stop-color="#2177f1" stop-opacity="0"/><stop offset="0.94" stop-color="#368af3" stop-opacity="0.04"/><stop offset="0.98" stop-color="#7fcdfc" stop-opacity="0.19"/><stop offset="1" stop-color="#9be7ff" stop-opacity="0.25"/></linearGradient><linearGradient id="未命名漸層_55" x1="139.18" y1="121.22" x2="160.89" y2="129.99" gradientUnits="userSpaceOnUse"><stop offset="0.85" stop-color="#2177f1" stop-opacity="0"/><stop offset="0.87" stop-color="#368af3" stop-opacity="0.04"/><stop offset="0.96" stop-color="#7fcdfc" stop-opacity="0.19"/><stop offset="1" stop-color="#9be7ff" stop-opacity="0.25"/></linearGradient><linearGradient id="未命名漸層_42" x1="167.75" y1="134.34" x2="134.48" y2="115.13" gradientUnits="userSpaceOnUse"><stop offset="0.75" stop-color="#2177f1" stop-opacity="0"/><stop offset="0.76" stop-color="#2177f1" stop-opacity="0"/><stop offset="1" stop-color="#9be7ff" stop-opacity="0.25"/></linearGradient><linearGradient id="未命名漸層_14" x1="218.59" y1="75.38" x2="241.22" y2="36.17" gradientUnits="userSpaceOnUse"><stop offset="0" stop-color="#fff" stop-opacity="0.4"/><stop offset="0.05" stop-color="#fff" stop-opacity="0.43"/><stop offset="0.71" stop-color="#fff" stop-opacity="0.84"/><stop offset="1" stop-color="#fff"/></linearGradient><linearGradient id="未命名漸層_60" x1="207.28" y1="218.3" x2="234.33" y2="211.05" gradientUnits="userSpaceOnUse"><stop offset="0" stop-color="#fff" stop-opacity="0"/><stop offset="0.01" stop-color="#fff" stop-opacity="0.02"/><stop offset="0.08" stop-color="#fff" stop-opacity="0.22"/><stop offset="0.16" stop-color="#fff" stop-opacity="0.39"/><stop offset="0.24" stop-color="#fff" stop-opacity="0.54"/><stop offset="0.32" stop-color="#fff" stop-opacity="0.67"/><stop offset="0.42" stop-color="#fff" stop-opacity="0.77"/><stop offset="0.52" stop-color="#fff" stop-opacity="0.85"/><stop offset="0.63" stop-color="#fff" stop-opacity="0.91"/><stop offset="0.77" stop-color="#fff" stop-opacity="0.94"/><stop offset="1" stop-color="#fff" stop-opacity="0.95"/></linearGradient><linearGradient id="未命名漸層_60-2" x1="65.29" y1="154.28" x2="100.83" y2="144.76" xlink:href="#未命名漸層_60"/><linearGradient id="未命名漸層_60-3" x1="125.68" y1="163.67" x2="168.14" y2="152.29" xlink:href="#未命名漸層_60"/><linearGradient id="未命名漸層_68" x1="143.44" y1="180.29" x2="133.96" y2="288.71" gradientUnits="userSpaceOnUse"><stop offset="0" stop-color="#fff" stop-opacity="0"/><stop offset="0.21" stop-color="#fff" stop-opacity="0.22"/><stop offset="0.76" stop-color="#fff" stop-opacity="0.78"/><stop offset="1" stop-color="#fff"/></linearGradient><linearGradient id="未命名漸層_60-4" x1="255.93" y1="195.51" x2="305.14" y2="195.51" xlink:href="#未命名漸層_60"/></defs><title>iLOGO_修正</title><g id="圖層_2" data-name="圖層 2"><g id="圖層_10" data-name="圖層 10"><circle class="cls-2" cx="162.24" cy="171.7" r="162.24"/><circle class="cls-3" cx="162.66" cy="162.29" r="162.29"/><path class="cls-4" d="M162.67,319.17A162.29,162.29,0,0,1,.41,159.58c0,.9,0,1.8,0,2.71a162.29,162.29,0,0,0,324.58,0c0-.91,0-1.81,0-2.71A162.28,162.28,0,0,1,162.67,319.17Z"/><g class="cls-5"><path class="cls-6" d="M162.67,321A162.27,162.27,0,0,0,324.92,161.39c0,.6,0,1.2,0,1.8,0-.3,0-.6,0-.9,0-.91,0-1.81,0-2.71a162.28,162.28,0,0,1-324.51,0c0,.9,0,1.8,0,2.71,0,.3,0,.6,0,.9,0-.6,0-1.2,0-1.8A162.28,162.28,0,0,0,162.67,321Z"/></g><path class="cls-7" d="M162.66,5.41A162.28,162.28,0,0,1,324.91,165c0-.9,0-1.8,0-2.7a162.29,162.29,0,1,0-324.57,0c0,.9,0,1.8,0,2.7A162.28,162.28,0,0,1,162.66,5.41Z"/><g class="cls-8"><path d="M303.05,134.54c-11.6-65.26-70.16-114.9-140.67-114.9A144.67,144.67,0,0,0,68.2,54.08l-.73.62a2.35,2.35,0,0,0-.92,2.41l0,.08.69,11.28a5.7,5.7,0,0,0,.32,1.74l1.94,7.11,2.94,7.61c1.08,2.78,3.67,3.33,5.78,1.23l2.09-1.89a121.07,121.07,0,0,1,81.27-30.88c63.1,0,114.73,47.29,118.8,107.09a113.61,113.61,0,0,1-6.53,35.64l-.07.19c-.07.21-.18.25-.25.1l-.11-.27-31.36-73.81c-1.94-4.57-5-4.51-6.71.13l-21,55.74c-.35.93-1,.94-1.33,0l-22.74-55.43c-1.88-4.59-4.92-4.57-6.75,0L139.44,233.72a1.35,1.35,0,0,0-.09.8h0l.36,6.73a1.81,1.81,0,0,0,1.8,1.8h23.8a1.38,1.38,0,0,0,1.21-.84l.89-2.4,19.31-51.21c.35-.93.93-.94,1.3,0l19.56,50.18c2.59,6.44,8.46,8.66,12,1.83l20.56-50.47c-.7-.58-.1-.58.28.33l26.18,62.95s.7,1.71,1.57,3.79,2.89,2.24,4.5.35c0,0,.64-.75,2.34-2.91a145.81,145.81,0,0,0,31.07-90.3A147.65,147.65,0,0,0,303.05,134.54Z"/><path d="M260.74,257.63l-.77-1.86-6.33-15.2-1.27-3.07c-.71-1.69-2.38-1.88-3.72-.42,0,0-.53.57-2.08,2.12a119.67,119.67,0,0,1-84.9,34.95c-65.21,0-118.14-51.42-118.76-115.09a110.67,110.67,0,0,1,7.79-32.77c.24-.59.39-.93.39-.93.19-.45.49-.45.66,0l.41,1.12,26.06,70.3c2.35,4.94,7,4.8,9.2.79l21.47-53c.75-1.84,1.94-1.82,2.65,0l20,52.91c1.37,4.4,6.8,4,8.35.33l42.57-103.9a10.86,10.86,0,0,0,.68-3.47V79.22l0,0a1.77,1.77,0,0,0-1.78-1.52H161.26a2.89,2.89,0,0,0-2.48,1.67L137,132.92c-.38.92-1,.92-1.34,0L114.44,78.38c-1.8-4.62-4.8-4.64-6.67,0l-22.63,55.6c-.37.92-1,.91-1.31,0L58.38,66.65l-.45-1.2c-.25-.67-1-.62-1.69.1l-.69.76a135.86,135.86,0,0,0-35.94,92c0,2,.06,4.05.14,6.07v0c0,79.69,64,144.3,143.11,144.3a142.14,142.14,0,0,0,97.41-38.51l.19-.17a1.83,1.83,0,0,0,.37-1.12V258h0A1.35,1.35,0,0,0,260.74,257.63Z"/></g><path class="cls-9" d="M80.64,194.08,51.48,120.35a127.23,127.23,0,0,0-6.82,12.11c-2.59,5.53,8.47-20.22,8.47-20.22S82.06,190.44,80.64,194.08Z"/><path class="cls-9" d="M114.16,143.28s-2.23-4.47-3.76-4.47-3.53,2.47-4.71,4.71-.94-14.94,5.53-12.35S114.16,143.28,114.16,143.28Z"/><path class="cls-9" d="M183.37,188.36s2.23-4.47,3.76-4.47,3.53,2.47,4.7,4.71.94-14.94-5.52-12.35S183.37,188.36,183.37,188.36Z"/><path class="cls-9" d="M246.17,195.85s-4.41-9.23-6.29-10.17c-1-.51-3.94,5.23-3.94,5.23s1.94-11.11,4.49-9.35S247.84,192.85,246.17,195.85Z"/><path class="cls-2" d="M260.57,262.7l-.35,3.53s-20.93,24.35-59.74,33.69-74,5.83-111.25-15.52-52.86-54.15-59.39-70.56-11.29-41.28-9.35-57L41,201.49s42.52,61.39,71.8,71.27S241,258.12,241,258.12Z"/><path class="cls-2" d="M67.27,62.16l3,12.69s1.23,7.4,5.11,7.4c0,0,.72,1.06,8.48-5.47s33.51-25.76,66-28.23,61.08,6.38,85.84,24.36,40.64,54,40.64,54l-16.51-46.2s-45-34.34-55.28-41.28-79.74-2.47-79.74-2.47Z"/><path class="cls-2" d="M304.52,156.86s2.8,35.11-10.78,61.74-18,30.87-20.64,33.7-4.41,3.7-7.41-3.88c-1.69-4.27-22.93-60.51-22.93-60.51L268.69,205S301.73,169.21,304.52,156.86Z"/><path class="cls-2" d="M237.17,188.68,218.94,240s-1.53,4.11-5.52,3.53-4.59-5.06-5.77-8.71S190,185.5,190,185.5Z"/><path class="cls-2" d="M184,187.26,166.26,240A5.31,5.31,0,0,1,163.2,241H144.62s-5.65.7-5.41-3.77S184,187.26,184,187.26Z"/><path class="cls-2" d="M182.43,84l-.18,2.29L140.44,194.44s-1.39,5-4.76,4.94c-3.09-.09-4.06-4.77-4.06-4.77l-18.16-53.27,30,1.77"/><path class="cls-2" d="M106.93,140.46,87.35,195.67s-.62,4.08-4.76,3.88c-3.8-.17-6.06-8.76-6.06-8.76L57.89,134.46Z"/><path class="cls-10" d="M42.91,152.75A110.67,110.67,0,0,1,50.7,120c.24-.59.39-.93.39-.93.19-.45.49-.45.66,0l.41,1.12L78.53,191.8c2.23,6,6,6.11,8.48.14l21.88-53.7c.75-1.84,1.94-1.83,2.65,0l21.11,55.12c1.77,4.63,4.75,4.66,6.63.07L182.46,87.61a10.86,10.86,0,0,0,.68-3.47V72.91l-49.58,66.6-23.63-21L81.17,155.21,48.54,97.7,35.66,148.86Z"/><path class="cls-11" d="M66.55,50.4l.72,11.76a5.75,5.75,0,0,0,.32,1.74L69.53,71l2.94,7.61c1.08,2.78,3.67,3.33,5.78,1.23L80.34,78a121.07,121.07,0,0,1,81.27-30.88c63.1,0,114.73,47.29,118.8,107.09L286.56,118,229.64,38.73,155.32,25.55Z"/><path class="cls-12" d="M301.14,120.06a147.54,147.54,0,0,1,4.94,38A145.81,145.81,0,0,1,275,248.33c-1.7,2.16-2.34,2.91-2.34,2.91-1.61,1.89-3.64,1.73-4.5-.35l-1.57-3.79-26.18-62.95c-.38-.92-1-.91-1.33,0L219,236.54c-2.49,6.48-6.63,6.51-9.22.07L188,182.28c-.37-.92-1-.91-1.3,0l-19.67,53.49-.89,2.4A1.39,1.39,0,0,1,165,239h-23.8a1.81,1.81,0,0,1-1.8-1.81v-9L185.81,166l32.31,19.29L241.64,165l38.81,38.34Z"/><path class="cls-13" d="M260.82,251.68v10.85a1.83,1.83,0,0,1-.37,1.12l-.19.17a142.14,142.14,0,0,1-97.41,38.51c-79.11,0-143.11-64.61-143.11-144.3l56.32,92.38,94.08,30.1Z"/><path class="cls-14" d="M66.55,50.4l.72,11.76a5.75,5.75,0,0,0,.32,1.74L69.53,71l2.94,7.61c1.08,2.78,3.67,3.33,5.78,1.23L80.34,78a121.07,121.07,0,0,1,81.27-30.88c63.1,0,114.73,47.29,118.8,107.09L286.56,118,229.64,38.73,155.32,25.55Z"/><path class="cls-15" d="M155.09,36.56c34.22-1.59,59.8,12.17,59.8,12.17s47.45,24.87,60.5,66L273.2,99.38,256,75.47l-10.1-9.28L225.19,37.94l-55.73-9.88-23.66.16-32.61,9.12-41,14.92-5.06-2-.57.16.72,11.76a5.75,5.75,0,0,0,.32,1.74L69.53,71l2.94,7.61a3.93,3.93,0,0,0,1.89,2.23c.34-2.78,1.86-8.29,8.22-14.66C91.76,57,120.86,38.15,155.09,36.56Z"/><path class="cls-16" d="M44,126.35s6.82-12.12,7.77-12,20.81,46.57,20.81,46.57L50.48,101.83Z"/><path class="cls-15" d="M66.18,144.16,77,187.76l1.5,4.07c2.23,6,6,6.12,8.47.15l.93-2.27c2-9.18,10.54-36.9,10.54-36.9Z"/><path class="cls-15" d="M100.87,146.93s7.85-14.31,8.79-15.42c.69-.82,1,0,1.68,1.45.85,1.93,11.75,20.2,11.75,20.2l-11.4-32s-4.7-1.88-7.29,4.12S100.87,146.93,100.87,146.93Z"/><path class="cls-16" d="M170.11,106.82l-1,2.36s.21-1,.6-2.55L144,125.48l-10.45,14L129.64,136l-11.48,8.43,13.27,45.76,1.22,3.17c1.77,4.63,4.75,4.66,6.63.07l5.24-12.85c5.5-17.28,15.5-43.81,17-47.74Z"/><path class="cls-15" d="M183.14,84.14V72.91l-4,5.41c-4.38,8.44-8.06,22.57-9.44,28.31l-14.24,18.92,9.67-9.79c2.73-6.27,13.88-28.57,14.7-29.87s1.78.65,1.52,2.62c-.19,1.42-2.65,7.69-5.79,16.08l6.92-17A10.86,10.86,0,0,0,183.14,84.14Z"/><g class="cls-17"><path class="cls-15" d="M149.35,229.1s9.44.35,11.29.44,3.66.71,3.93,1.77a26,26,0,0,1,0,5.2c-.09,1.94-3.88,2.91-3.88,2.91s4.5,3.09,5.74-.79,2.7-7.65,3.41-10.56,10.52-37.6,11.84-41.13,3.88-10.67,5.74-10.67,20.19,44.1,20.19,44.1l-19.93-54.69-8.47,6.18Z"/><path class="cls-15" d="M201.66,206l10.11,37.63s3.53.59,5.88-.94c0,0,7.41-31.16,9.88-38.1s8.58-23.52,12.23-23.4c2.47.08,4.94,3.88,18,33.16l.71-19.05-18-30.93-28.57,23.29Z"/><path class="cls-15" d="M257.22,211.9s10.61,29.95,11.58,31.58c1.24,2.05.95,3,.77,5.73s-.71,3.09-2.65,1.85,1.94,5.65,5.47,3.53,36.87-48.51,35.11-85.73c0,0,7.76-33.34-7.59-44.45s-8.11,67.21-8.11,67.21l-17.47,22.22Z"/></g><path class="cls-15" d="M260.45,263.53a1.77,1.77,0,0,0,.37-1.11V251.56L215,266.15c-6.57,3.06-13.57,6.34-20.83,9.67-34.81,16-84.2-8.7-107.72-16.7-15.49-5.26-36.26-45.07-48.66-71.67l-18-29.53a144.79,144.79,0,0,0,12.7,59.52c9.78,17.16,19.86,27.1,19.86,27.1s36,43,102.08,46.57c53.46,2.85,87-21,98.55-29.31,0,0,1.47-.13,1.78-.13a7.37,7.37,0,0,1,1.5.61,8,8,0,0,1,.92.93,7,7,0,0,1,.27,1.68c-.88,1.37-10.34,9.31-14,12.34a144.36,144.36,0,0,0,16.85-13.52Z"/><path class="cls-18" d="M240.21,173.31l28,66.95.69,1.66a1.05,1.05,0,0,0,1.9.31s.68-.75,1.59-1.83A135.66,135.66,0,0,0,305.14,152c0-76.57-63.92-138.65-142.76-138.65A144.68,144.68,0,0,0,68.2,47.77l-.73.62a2.35,2.35,0,0,0-.92,2.41c.23.67.44,1.22.44,1.22L72.32,66.9l1.22,3.4.27.77a1,1,0,0,0,1.86.4s.82-.86,1.89-1.9a119.69,119.69,0,0,1,84.11-34.16c65.6,0,118.78,52,118.78,116.21,0,.85,0,1.7,0,2.55a113.61,113.61,0,0,1-6.53,35.64l-.07.19c-.07.2-.18.25-.25.1l-.11-.27L242.09,116c-1.94-4.57-5-4.51-6.71.13l-21,55.74c-.35.93-1,.94-1.33,0l-22.74-55.43c-1.88-4.59-4.92-4.57-6.75,0L139.44,227.41a1.14,1.14,0,0,0,1.14,1.67H164a1.42,1.42,0,0,0,1.22-.84l21.41-55.63c.36-.92,1-.93,1.33,0l22.94,56.63c1.86,4.6,4.83,4.57,6.6-.06l21.36-55.84C239.22,172.4,239.82,172.39,240.21,173.31Z"/><path class="cls-19" d="M240.21,173.31l28,66.95.69,1.66a1.05,1.05,0,0,0,1.9.31s.68-.75,1.59-1.83A135.66,135.66,0,0,0,305.14,152c0-76.57-63.92-138.65-142.76-138.65A144.68,144.68,0,0,0,68.2,47.77l-.73.62a2.35,2.35,0,0,0-.92,2.41c.23.67.44,1.22.44,1.22L72.32,66.9l1.22,3.4.27.77a1,1,0,0,0,1.86.4s.82-.86,1.89-1.9a119.69,119.69,0,0,1,84.11-34.16c65.6,0,118.78,52,118.78,116.21,0,.85,0,1.7,0,2.55a113.61,113.61,0,0,1-6.53,35.64l-.07.19c-.07.2-.18.25-.25.1l-.11-.27L242.09,116c-1.94-4.57-5-4.51-6.71.13l-21,55.74c-.35.93-1,.94-1.33,0l-22.74-55.43c-1.88-4.59-4.92-4.57-6.75,0L139.44,227.41a1.14,1.14,0,0,0,1.14,1.67H164a1.42,1.42,0,0,0,1.22-.84l21.41-55.63c.36-.92,1-.93,1.33,0l22.94,56.63c1.86,4.6,4.83,4.57,6.6-.06l21.36-55.84C239.22,172.4,239.82,172.39,240.21,173.31Z"/><path class="cls-18" d="M253.64,234.26l-1.27-3.08c-.71-1.68-2.38-1.87-3.72-.41,0,0-.53.57-2.08,2.12a119.71,119.71,0,0,1-84.9,34.95c-65.21,0-118.14-51.43-118.76-115.09,0-.37,0-.75,0-1.13a113.81,113.81,0,0,1,8.21-42.56l.15-.37c.17-.4.4-.47.53-.14l.22.59,27.68,73.53c1.75,4.64,4.72,4.68,6.61.1l23.29-56.6c.37-.92,1-.91,1.33,0l21.82,57.1c1.77,4.64,4.74,4.66,6.59.07l43.81-108.5V73.13a1.76,1.76,0,0,0-1.8-1.71H161.26a2.89,2.89,0,0,0-2.48,1.67L137,126.61c-.38.92-1,.92-1.34,0L114.44,72.07c-1.8-4.62-4.8-4.65-6.67,0l-22.63,55.6c-.37.92-1,.91-1.31,0L58.38,60.34l-.45-1.21c-.25-.66-1-.61-1.69.11l-.69.76a135.86,135.86,0,0,0-35.94,92c0,76.58,63.92,138.65,142.77,138.65a144.64,144.64,0,0,0,97-36.9l1.05-1a1.4,1.4,0,0,0,.32-1.44l-.77-1.86Z"/><path class="cls-20" d="M238.87,173.33l-21.36,55.84c-1.77,4.63-4.74,4.66-6.6.06L188,172.6l52.61-3.51Z"/><path class="cls-21" d="M183.52,116.52,139.44,227.41a1.14,1.14,0,0,0,1.14,1.67H164a1.42,1.42,0,0,0,1.22-.84l21.41-55.63c.36-.92,3.88-12.08,4.25-11.16"/><path class="cls-22" d="M183.52,116.52,139.44,227.41a1.14,1.14,0,0,0,1.14,1.67H164a1.42,1.42,0,0,0,1.22-.84l21.41-55.63c.36-.92,3.88-12.08,4.25-11.16"/><path class="cls-23" d="M238.87,173.33l-21.36,55.84c-1.77,4.63-4.74,4.66-6.6.06L188,172.6l52.61-3.51Z"/><line class="cls-24" x1="183.52" y1="116.52" x2="139.44" y2="227.41"/><line class="cls-24" x1="183.52" y1="116.52" x2="139.44" y2="227.41"/><path class="cls-25" d="M214.34,171.89c-.35.93-1,.94-1.33,0l-22.74-55.43c-1.88-4.59-4.92-4.57-6.75,0L139.44,227.41"/><path class="cls-26" d="M214.34,171.89c-.35.93-1,.94-1.33,0l-22.74-55.43c-1.88-4.59-4.92-4.57-6.75,0L139.44,227.41a1.14,1.14,0,0,0,1.14,1.67H164"/><path class="cls-27" d="M273.56,190.1l-.11-.27L242.09,116c-1.94-4.57-5-4.51-6.71.13l-21,55.74c-.35.93-1,.94-1.33,0"/><path class="cls-28" d="M273.56,190.1l-.11-.27L242.09,116c-1.94-4.57-5-4.51-6.71.13l-21,55.74c-.35.93-1,.94-1.33,0"/><path class="cls-29" d="M272.34,240.4A135.66,135.66,0,0,0,305.14,152c0-76.57-63.92-138.65-142.76-138.65A144.68,144.68,0,0,0,68.2,47.77l-.73.62a2.35,2.35,0,0,0-.92,2.41c.23.67.44,1.22.44,1.22L72.32,66.9l1.22,3.4.27.77a1,1,0,0,0,1.86.4s.82-.86,1.89-1.9a119.69,119.69,0,0,1,84.11-34.16c65.6,0,118.78,52,118.78,116.21,0,.85,0,1.7,0,2.55a113.61,113.61,0,0,1-6.53,35.64"/><path class="cls-30" d="M240.21,173.31l28,66.95.69,1.66a1.05,1.05,0,0,0,1.9.31s.68-.75,1.59-1.83A135.66,135.66,0,0,0,305.14,152"/><path class="cls-31" d="M240.21,173.31l28,66.95.69,1.66a1.05,1.05,0,0,0,1.9.31s.68-.75,1.59-1.83A135.66,135.66,0,0,0,305.14,152"/><path class="cls-32" d="M240.21,173.31l28,66.95.69,1.66a1.05,1.05,0,0,0,1.9.31s.68-.75,1.59-1.83A135.66,135.66,0,0,0,305.14,152"/><path class="cls-33" d="M240.21,173.31l28,66.95.69,1.66a1.05,1.05,0,0,0,1.9.31s.68-.75,1.59-1.83A135.66,135.66,0,0,0,305.14,152"/><path class="cls-34" d="M272.34,240.4A135.66,135.66,0,0,0,305.14,152c0-76.57-63.92-138.65-142.76-138.65A144.68,144.68,0,0,0,68.2,47.77l-.73.62a2.35,2.35,0,0,0-.92,2.41c.23.67.44,1.22.44,1.22L72.32,66.9l1.22,3.4.27.77a1,1,0,0,0,1.86.4s.82-.86,1.89-1.9a119.69,119.69,0,0,1,84.11-34.16c65.6,0,118.78,52,118.78,116.21,0,.85,0,1.7,0,2.55a113.61,113.61,0,0,1-6.53,35.64"/><path class="cls-35" d="M272.34,240.4A135.66,135.66,0,0,0,305.14,152c0-76.57-63.92-138.65-142.76-138.65A144.68,144.68,0,0,0,68.2,47.77l-.73.62a2.35,2.35,0,0,0-.92,2.41c.23.67.44,1.22.44,1.22L72.32,66.9l1.22,3.4.27.77a1,1,0,0,0,1.86.4s.82-.86,1.89-1.9a119.69,119.69,0,0,1,84.11-34.16c65.6,0,118.78,52,118.78,116.21,0,.85,0,1.7,0,2.55a113.61,113.61,0,0,1-6.53,35.64"/><path class="cls-36" d="M272.34,240.4A135.66,135.66,0,0,0,305.14,152c0-76.57-63.92-138.65-142.76-138.65A144.68,144.68,0,0,0,68.2,47.77l-.73.62a2.35,2.35,0,0,0-.92,2.41c.23.67.44,1.22.44,1.22L72.32,66.9l1.22,3.4.27.77a1,1,0,0,0,1.86.4s.82-.86,1.89-1.9a119.69,119.69,0,0,1,84.11-34.16c65.6,0,118.78,52,118.78,116.21,0,.85,0,1.7,0,2.55a113.61,113.61,0,0,1-6.53,35.64"/><path class="cls-37" d="M253.64,234.26l-1.27-3.08c-.71-1.68-2.38-1.87-3.72-.41,0,0-.53.57-2.08,2.12a119.71,119.71,0,0,1-84.9,34.95c-65.21,0-118.14-51.43-118.76-115.09,0-.37,0-.75,0-1.13a113.81,113.81,0,0,1,8.21-42.56l.15-.37c.17-.4.4-.47.53-.14l.22.59,27.68,73.53c1.75,4.64,4.72,4.68,6.61.1l23.29-56.6c.37-.92,1-.91,1.33,0l21.82,57.1c1.77,4.64,4.74,4.66,6.59.07l43.81-108.5V73.13a1.76,1.76,0,0,0-1.8-1.71H161.26a2.89,2.89,0,0,0-2.48,1.67L137,126.61c-.38.92-1,.92-1.34,0L114.44,72.07c-1.8-4.62-4.8-4.65-6.67,0l-22.63,55.6c-.37.92-1,.91-1.31,0L58.38,60.34l-.45-1.21c-.25-.66-1-.61-1.69.11l-.69.76a135.86,135.86,0,0,0-35.94,92c0,76.58,63.92,138.65,142.77,138.65a144.64,144.64,0,0,0,97-36.9l1.05-1a1.4,1.4,0,0,0,.32-1.44l-.77-1.86Z"/><path class="cls-38" d="M110.92,126.18l21.82,57.1c1.77,4.64,4.74,4.66,6.59.07l43.81-108.5"/><path class="cls-39" d="M183.14,74.85l-43.81,108.5c-1.85,4.59-4.82,4.57-6.59-.07l-21.82-57.1"/><path class="cls-40" d="M52,109.14l27.68,73.53c1.75,4.64,4.72,4.68,6.61.1l23.29-56.6"/><path class="cls-41" d="M52,109.14l27.68,73.53c1.75,4.64,4.72,4.68,6.61.1l23.29-56.6"/><path class="cls-42" d="M253.64,234.26l-1.27-3.08c-.71-1.68-2.38-1.87-3.72-.41,0,0-.53.57-2.08,2.12a119.71,119.71,0,0,1-84.9,34.95c-65.21,0-118.14-51.43-118.76-115.09,0-.37,0-.75,0-1.13a113.81,113.81,0,0,1,8.21-42.56l.15-.37c.17-.4.4-.47.53-.14l.22.59,27.68,73.53c1.75,4.64,4.72,4.68,6.61.1l23.29-56.6c.37-.92,1-.91,1.33,0l21.82,57.1c1.77,4.64,4.74,4.66,6.59.07l43.81-108.5V73.13a1.76,1.76,0,0,0-1.8-1.71H161.26a2.89,2.89,0,0,0-2.48,1.67L137,126.61c-.38.92-1,.92-1.34,0L114.44,72.07c-1.8-4.62-4.8-4.65-6.67,0l-22.63,55.6c-.37.92-1,.91-1.31,0L58.38,60.34l-.45-1.21c-.25-.66-1-.61-1.69.11l-.69.76a135.86,135.86,0,0,0-35.94,92c0,76.58,63.92,138.65,142.77,138.65a144.64,144.64,0,0,0,97-36.9l1.05-1a1.4,1.4,0,0,0,.32-1.44l-.77-1.86Z"/><path class="cls-43" d="M253.64,234.26l-1.27-3.08c-.71-1.68-2.38-1.87-3.72-.41,0,0-.53.57-2.08,2.12a119.71,119.71,0,0,1-84.9,34.95c-65.21,0-118.14-51.43-118.76-115.09,0-.37,0-.75,0-1.13a113.81,113.81,0,0,1,8.21-42.56l.15-.37c.17-.4.4-.47.53-.14l.22.59,27.68,73.53c1.75,4.64,4.72,4.68,6.61.1l23.29-56.6c.37-.92,1-.91,1.33,0l21.82,57.1c1.77,4.64,4.74,4.66,6.59.07l43.81-108.5V73.13a1.76,1.76,0,0,0-1.8-1.71H161.26a2.89,2.89,0,0,0-2.48,1.67L137,126.61c-.38.92-1,.92-1.34,0L114.44,72.07c-1.8-4.62-4.8-4.65-6.67,0l-22.63,55.6c-.37.92-1,.91-1.31,0L58.38,60.34l-.45-1.21c-.25-.66-1-.61-1.69.11l-.69.76a135.86,135.86,0,0,0-35.94,92c0,76.58,63.92,138.65,142.77,138.65a144.64,144.64,0,0,0,97-36.9l1.05-1a1.4,1.4,0,0,0,.32-1.44l-.77-1.86Z"/><path class="cls-44" d="M253.64,234.26l-1.27-3.08c-.71-1.68-2.38-1.87-3.72-.41,0,0-.53.57-2.08,2.12a119.71,119.71,0,0,1-84.9,34.95c-65.21,0-118.14-51.43-118.76-115.09,0-.37,0-.75,0-1.13a113.81,113.81,0,0,1,8.21-42.56l.15-.37c.17-.4.4-.47.53-.14l.22.59,27.68,73.53c1.75,4.64,4.72,4.68,6.61.1l23.29-56.6c.37-.92,1-.91,1.33,0l21.82,57.1c1.77,4.64,4.74,4.66,6.59.07l43.81-108.5V73.13a1.76,1.76,0,0,0-1.8-1.71H161.26a2.89,2.89,0,0,0-2.48,1.67L137,126.61c-.38.92-1,.92-1.34,0L114.44,72.07c-1.8-4.62-4.8-4.65-6.67,0l-22.63,55.6c-.37.92-1,.91-1.31,0L58.38,60.34l-.45-1.21c-.25-.66-1-.61-1.69.11l-.69.76a135.86,135.86,0,0,0-35.94,92c0,76.58,63.92,138.65,142.77,138.65a144.64,144.64,0,0,0,97-36.9l1.05-1a1.4,1.4,0,0,0,.32-1.44l-.77-1.86Z"/><path class="cls-45" d="M83.83,127.61,58.38,60.34l-.45-1.21c-.25-.66-1-.61-1.69.11l-.69.76a135.86,135.86,0,0,0-35.94,92"/><path class="cls-46" d="M253.64,234.26l-1.27-3.08c-.71-1.68-2.38-1.87-3.72-.41,0,0-.53.57-2.08,2.12a119.71,119.71,0,0,1-84.9,34.95c-65.21,0-118.14-51.43-118.76-115.09,0-.37,0-.75,0-1.13a113.81,113.81,0,0,1,8.21-42.56l.15-.37c.17-.4.4-.47.53-.14l.22.59,27.68,73.53c1.75,4.64,4.72,4.68,6.61.1l23.29-56.6c.37-.92,1-.91,1.33,0l21.82,57.1c1.77,4.64,4.74,4.66,6.59.07l43.81-108.5V73.13a1.76,1.76,0,0,0-1.8-1.71H161.26a2.89,2.89,0,0,0-2.48,1.67L137,126.61c-.38.92-1,.92-1.34,0L114.44,72.07c-1.8-4.62-4.8-4.65-6.67,0l-22.63,55.6c-.37.92-1,.91-1.31,0L58.38,60.34l-.45-1.21c-.25-.66-1-.61-1.69.11l-.69.76a135.86,135.86,0,0,0-35.94,92c0,76.58,63.92,138.65,142.77,138.65a144.64,144.64,0,0,0,97-36.9l1.05-1a1.4,1.4,0,0,0,.32-1.44l-.77-1.86Z"/><path class="cls-47" d="M132.74,183.28c1.77,4.64,4.74,4.66,6.59.07l43.81-108.5V73.13a1.76,1.76,0,0,0-1.8-1.71H161.26a2.89,2.89,0,0,0-2.48,1.67L137,126.61"/><path class="cls-48" d="M132.74,183.28c1.77,4.64,4.74,4.66,6.59.07l43.81-108.5V73.13a1.76,1.76,0,0,0-1.8-1.71H161.26a2.89,2.89,0,0,0-2.48,1.67L137,126.61"/><path class="cls-49" d="M132.74,183.28c1.77,4.64,4.74,4.66,6.59.07l43.81-108.5V73.13a1.76,1.76,0,0,0-1.8-1.71H161.26a2.89,2.89,0,0,0-2.48,1.67L137,126.61"/><path class="cls-50" d="M302.15,123.62c-13.48-63-70.93-110.3-139.77-110.3a147.36,147.36,0,0,0-20.17,1.38C181.89,12.66,267.36,21,302.15,123.62Z"/><path class="cls-51" d="M213.89,230.54c-1.1.08-2.91-2.44-5-6.41l2.07,5.1c1.86,4.6,4.83,4.57,6.6-.06l12.74-33.32-12.6,30.57S216.17,230.38,213.89,230.54Z"/><path class="cls-6" d="M164.79,228l-1.06.18-1.24.53-19.81.42H164a1.42,1.42,0,0,0,1.22-.84l12-31.14-12.08,29.62Z"/><path class="cls-52" d="M243.29,121.64l25.6,57.47L242.09,116c-1.85-4.36-4.68-4.49-6.46-.46C239.92,112.36,243.29,121.64,243.29,121.64Z"/><path class="cls-52" d="M189.42,118.59l18.81,41.66-18-43.77c-1.88-4.59-4.92-4.57-6.75,0l-.49,1.21C187.09,114.53,189.42,118.59,189.42,118.59Z"/><path class="cls-53" d="M162.14,74.6c2.82-1.17,15.52-1.17,15.52-1.17s2.65-.53,2.65,2c0,1.77-4.42,15.55-7.56,25.13l10.39-25.74V73.13a1.76,1.76,0,0,0-1.8-1.71H161.26a2.89,2.89,0,0,0-2.48,1.67L145,107,156,82.6S159.32,75.78,162.14,74.6Z"/><path class="cls-53" d="M117.34,83.83c2.22,4.1,9.57,21.24,14.26,32.31L114.44,72.07c-1.8-4.62-4.8-4.65-6.67,0l-4.15,10.21C111.15,69.3,114.73,79,117.34,83.83Z"/><path class="cls-54" d="M83.11,185.09c-1.94,0-2.47-1.94-4-6.18-1.18-3.14-15.61-40.09-23-58.87l23.58,62.63c1.75,4.64,4.72,4.68,6.61.1l15-36.38L87.17,178.91S85.05,185.09,83.11,185.09Z"/><path class="cls-55" d="M136.15,185.62c-1.64.35-2.41-1.41-2.41-1.41l-7-16.72,6,15.79c1.77,4.64,4.74,4.66,6.59.07l22.32-55.27c-7.35,17.3-19.29,45.49-21.15,50.25C138.23,184.17,137.8,185.26,136.15,185.62Z"/><path class="cls-6" d="M51.41,108.32a1,1,0,0,1,.12-.21c-.37.48-1.83,2.56-3.55,7.52-2.89,8.33-4.06,18.46-4.53,26a113.56,113.56,0,0,1,7.81-33Z"/><path class="cls-6" d="M273.86,111.76c-4-9.87-25.4-63.5-91-75S77.23,68.49,77.23,68.49a11,11,0,0,1-2.47,2.23c-.82-.12-1.29-2.47-1.29-2.47s-5.88-15.52-6.11-17.64a6,6,0,0,1,.31-2.39l-.2.17a2.35,2.35,0,0,0-.92,2.41c.23.67.44,1.22.44,1.22L72.32,66.9l1.22,3.4.27.77a1,1,0,0,0,1.86.4s.82-.86,1.89-1.9a119.69,119.69,0,0,1,84.11-34.16c65.6,0,118.78,52,118.78,116.21,0,.85,0,1.7,0,2.55,0,.46,0,.91-.05,1.36C282.5,139.05,277.58,120.94,273.86,111.76Z"/><path class="cls-6" d="M83.83,127.61,58.38,60.34l-.45-1.21c-.25-.66-1-.61-1.69.11l-.69.76A139.41,139.41,0,0,0,38,83.89C48.15,68,57.48,60.49,57.48,60.49s24.93,68.21,26.81,68.44a1.59,1.59,0,0,0,1.88-1.64l4.24-12.62-5.27,13C84.77,128.54,84.18,128.53,83.83,127.61Z"/><path class="cls-56" d="M252.46,233.6l7,16.58.18,2.25-1.23,1.23c-28.23,26.82-69.86,36-98.44,35.68s-65.26-8.82-100.54-42.69C34.83,223,24.65,188.31,20.75,169.56c8.89,68.27,68.91,121.06,141.63,121.06a144.64,144.64,0,0,0,97-36.9l1.05-1a1.4,1.4,0,0,0,.4-1c-.05-.17-.09-.34-.13-.51l-.72-1.75-6.33-15.2-1.27-3.08c-.71-1.68-2.38-1.87-3.72-.41,0,0-.53.57-2.08,2.12a119,119,0,0,1-10,8.91c6.49-3.73,12.58-10.28,13.58-10.14C251.4,231.83,252.46,233.6,252.46,233.6Z"/><path class="cls-57" d="M268.85,241.92a1.05,1.05,0,0,0,1.9.31s.68-.75,1.59-1.83A135.66,135.66,0,0,0,305.14,152c0-1.22,0-2.44-.05-3.66-.75,15.13-3.51,43.4-13.47,60.59,0,0-8.64,18.17-20.11,30.17,0,0-1.41,2.29-3.35-1.41-1.26-2.41-7.79-16.85-12.23-26.69l12.23,29.29Z"/></g></g></svg>